<?xml version="1.0" encoding="UTF-8"?>
<svg width="500px" height="112.449799px" viewBox="0 0 500 112.449799" version="1.1" xmlns="http://www.w3.org/2000/svg" xmlns:xlink="http://www.w3.org/1999/xlink">
    <title>logo</title>
    <g id="Page-1" stroke="none" stroke-width="1" fill="none" fill-rule="evenodd">
        <g id="logo" fill-rule="nonzero">
            <path d="M55.8434305,100.401606 C31.7560498,100.401606 12.0481928,80.99064 12.0481928,56.7269319 C12.0481928,32.7058609 31.5127429,13.0522088 55.8434305,13.0522088 L83.3371076,13.0522088 C92.339462,13.0522088 99.3953615,20.3313213 99.3953615,29.0663047 L99.3953615,56.7269319 C99.6386683,80.7480029 79.9308113,100.401606 55.8434305,100.401606 Z" id="Path" fill="#377DFF" opacity="0.65"></path>
            <path d="M68.7751004,87.3493976 C44.7540161,87.3493976 25.1004016,67.9384203 25.1004016,43.6746988 C25.1004016,19.6536145 44.5113788,0 68.7751004,0 L96.1931058,0 C105.170683,0.242637216 112.449799,7.52175368 112.449799,16.2566934 L112.449799,43.917336 C112.449799,67.9384203 93.038822,87.3493976 68.7751004,87.3493976 Z" id="Path" fill="#00DFFC" opacity="0.5"></path>
            <path d="M43.7963553,112.449799 C19.4650468,112.449799 0,93.038822 0,68.7751004 C0,44.7540161 19.4650468,25.1004016 43.7963553,25.1004016 L71.290734,25.1004016 C80.2933181,25.1004016 87.3493976,32.3795181 87.3493976,41.1144578 L87.3493976,68.7751004 C87.3493976,93.038822 67.8843508,112.449799 43.7963553,112.449799 Z" id="Path" fill="#377DFF" opacity="0.7"></path>
            <path d="M131.526104,84.0958729 L131.526104,22.4442025 L173.422383,22.4442025 L173.422383,34.0983943 L145.491531,34.0983943 L145.491531,46.1975012 L170.288974,46.1975012 L170.288974,57.5847129 L145.491531,57.5847129 L145.491531,72.4416034 L175.481376,72.4416034 L175.481376,84.0958729 L131.526104,84.0958729 Z M179.549742,38.9023255 C181.817664,38.2501225 184.741883,37.656833 188.322922,37.1232359 C191.9037,36.530206 195.663635,36.2335612 199.602726,36.2335612 C203.601361,36.2335612 206.913666,36.7674179 209.53964,37.8348718 C212.225158,38.8431522 214.343957,40.2962702 215.895514,42.1939658 C217.447333,44.0919209 218.551521,46.3456938 219.207819,48.9552848 C219.864377,51.5648757 220.192657,54.4711115 220.192657,57.6737322 L220.192657,84.0958729 L206.85386,84.0958729 L206.85386,59.2750425 C206.85386,55.0047086 206.28688,51.9801264 205.152919,50.2007773 C204.018958,48.4214281 201.90042,47.532013 198.797044,47.532013 C197.841979,47.532013 196.827368,47.5911863 195.753213,47.7097922 C194.679058,47.7692251 193.723992,47.8579848 192.888538,47.9765908 L192.888538,84.0958729 L179.549742,84.0958729 L179.549742,38.9023255 Z M226.447201,25.6469012 L239.785997,23.5117601 L239.785997,37.3010152 L255.810575,37.3010152 L255.810575,48.3326684 L239.785997,48.3326684 L239.785997,64.7908692 C239.785997,67.5782392 240.263661,69.8024257 241.218465,71.463169 C242.233076,73.1236526 244.232262,73.954154 247.21655,73.954154 C248.648755,73.954154 250.110995,73.8355478 251.60301,73.5980764 C253.154826,73.3016912 254.557263,72.9160271 255.810575,72.4416034 L257.690411,82.7613611 C256.079046,83.4138237 254.288527,83.977267 252.319113,84.451691 C250.349698,84.9261148 247.932652,85.1633267 245.067978,85.1633267 C241.427394,85.1633267 238.413335,84.6889029 236.026063,83.7400551 C233.639052,82.7317745 231.729181,81.367676 230.296714,79.6477597 C228.864507,77.8684106 227.849896,75.7332436 227.253144,73.2422586 C226.715936,70.7512735 226.447201,67.9934899 226.447201,64.9686485 L226.447201,25.6469012 Z M289.680017,49.044304 C288.486251,48.7476595 287.083817,48.4512743 285.472453,48.1546296 C283.86109,47.7988118 282.130115,47.620773 280.28005,47.620773 C279.444597,47.620773 278.429986,47.7097922 277.236219,47.887831 C276.102521,48.006437 275.237033,48.1546296 274.64028,48.3326684 L274.64028,84.0958729 L261.301484,84.0958729 L261.301484,39.792 C263.688755,38.9617582 266.493625,38.1906897 269.716611,37.4790538 C272.998883,36.7079853 276.639467,36.3225808 280.638103,36.3225808 C281.354466,36.3225808 282.219693,36.3817538 283.234303,36.5003598 C284.248915,36.5597927 285.263524,36.6783986 286.278134,36.8561778 C287.292746,36.9747838 288.307355,37.1528226 289.321704,37.3900345 C290.336316,37.5680733 291.201803,37.8052852 291.917906,38.1016704 L289.680017,49.044304 Z M290.584941,61.0543917 C290.584941,56.9026637 291.211466,53.284792 292.464778,50.2007773 C293.777894,47.0573297 295.478837,44.4477387 297.567602,42.3720043 C299.656366,40.2962702 302.043638,38.7245463 304.729419,37.656833 C307.474743,36.5893793 310.27961,36.0555227 313.144548,36.0555227 C319.828701,36.0555227 325.110421,38.1016704 328.989705,42.1939658 C332.868991,46.2270878 334.808634,52.1877517 334.808634,60.0756977 C334.808634,60.8467664 334.77886,61.7068542 334.719317,62.655702 C334.65951,63.5453767 334.599967,64.3460319 334.54016,65.0576678 L304.281788,65.0576678 C304.580295,67.7858647 305.863378,69.9506183 308.131302,71.5519287 C310.399224,73.153239 313.442794,73.954154 317.262534,73.954154 C319.709351,73.954154 322.096623,73.7465285 324.42409,73.3312778 C326.811362,72.8568541 328.751005,72.2934108 330.243017,71.6409482 L332.033536,82.4055433 C331.317433,82.7613611 330.362367,83.117179 329.168862,83.4732566 C327.975356,83.8290744 326.632466,84.1254596 325.140454,84.3626715 C323.707985,84.6593162 322.15643,84.8965281 320.485261,85.0745669 C318.814092,85.2523462 317.143184,85.3413655 315.472013,85.3413655 C311.234676,85.3413655 307.534286,84.7184895 304.371366,83.4732566 C301.267731,82.2277641 298.671789,80.5374342 296.582764,78.4022672 C294.553803,76.2076674 293.031759,73.6279226 292.017147,70.6625138 C291.062341,67.6968454 290.584941,64.4942245 290.584941,61.0543917 Z M321.917466,55.9834023 C321.857923,54.856516 321.648992,53.759216 321.290942,52.6917623 C320.992435,51.6243084 320.485261,50.675201 319.769156,49.8449595 C319.112599,49.0147176 318.247111,48.3326684 317.172956,47.7988118 C316.158344,47.2649549 314.87526,46.9981563 313.323444,46.9981563 C311.831429,46.9981563 310.548345,47.2649549 309.473929,47.7988118 C308.399774,48.2732355 307.504515,48.9256981 306.788412,49.7559399 C306.072309,50.5861818 305.505328,51.5648757 305.087471,52.6917623 C304.729419,53.759216 304.460684,54.856516 304.281788,55.9834023 L321.917466,55.9834023 Z M365.602906,59.2750425 C365.602906,55.0047086 365.035927,51.9801264 363.901965,50.2007773 C362.82781,48.4214281 360.947713,47.532013 358.262196,47.532013 C357.426479,47.532013 356.561253,47.5911863 355.665993,47.7097922 C354.770734,47.7692251 353.905246,47.8579848 353.069791,47.9765908 L353.069791,84.0958729 L339.730994,84.0958729 L339.730994,38.9023255 C340.864956,38.6059403 342.178073,38.3092956 343.670087,38.0129104 C345.221643,37.656833 346.833268,37.3604478 348.504176,37.1232359 C350.234891,36.8265912 351.995638,36.618966 353.785896,36.5003598 C355.576415,36.3225808 357.337162,36.2335612 359.067877,36.2335612 C362.469758,36.2335612 365.215082,36.6783986 367.303849,37.5680733 C369.45242,38.3983151 371.212907,39.4065955 372.585569,40.5926552 C374.495438,39.2285567 376.673781,38.161103 379.120598,37.3900345 C381.627222,36.618966 383.925176,36.2335612 386.01368,36.2335612 C389.774399,36.2335612 392.848265,36.7674179 395.235276,37.8348718 C397.682354,38.8431522 399.620168,40.2962702 401.053942,42.1939658 C402.485103,44.0919209 403.46968,46.3456938 404.007672,48.9552848 C404.545664,51.5648757 404.81466,54.4711115 404.81466,57.6737322 L404.81466,84.0958729 L391.474557,84.0958729 L391.474557,59.2750425 C391.474557,55.0047086 390.907837,51.9801264 389.774399,50.2007773 C388.698417,48.4214281 386.820668,47.532013 384.133844,47.532013 C383.417741,47.532013 382.403132,47.7097922 381.090274,48.0656103 C379.836964,48.4214281 378.792581,48.8662655 377.956865,49.4001221 C378.374724,50.7642206 378.643196,52.2173383 378.762548,53.759216 C378.881898,55.24218 378.941702,56.8434903 378.941702,58.5634069 L378.941702,84.0958729 L365.602906,84.0958729 L365.602906,59.2750425 Z M409.317074,61.0543917 C409.317074,56.9026637 409.943861,53.284792 411.197434,50.2007773 C412.511073,47.0573297 414.21123,44.4477387 416.300519,42.3720043 C418.387194,40.2962702 420.776819,38.7245463 423.461554,37.656833 C426.206356,36.5893793 429.011223,36.0555227 431.876159,36.0555227 C438.56188,36.0555227 443.842556,38.1016704 447.720796,42.1939658 C451.601648,46.2270878 453.539462,52.1877517 453.539462,60.0756977 C453.539462,60.8467664 453.510734,61.7068542 453.450666,62.655702 C453.390601,63.5453767 453.333145,64.3460319 453.273078,65.0576678 L423.014969,65.0576678 C423.31269,67.7858647 424.594991,69.9506183 426.864481,71.5519287 C429.131359,73.153239 432.173882,73.954154 435.994669,73.954154 C438.441747,73.954154 440.828758,73.7465285 443.155701,73.3312778 C445.542714,72.8568541 447.48314,72.2934108 448.974369,71.6409482 L450.765932,82.4055433 C450.050351,82.7613611 449.094502,83.117179 447.900997,83.4732566 C446.707491,83.8290744 445.365123,84.1254596 443.871284,84.3626715 C442.44012,84.6593162 440.888826,84.8965281 439.217393,85.0745669 C437.545964,85.2523462 435.874534,85.3413655 434.203104,85.3413655 C429.967072,85.3413655 426.266421,84.7184895 423.103762,83.4732566 C419.998559,82.2277641 417.40262,80.5374342 415.315942,78.4022672 C413.286721,76.2076674 411.764152,73.6279226 410.748238,70.6625138 C409.794998,67.6968454 409.317074,64.4942245 409.317074,61.0543917 Z M440.648557,55.9834023 C440.591102,54.856516 440.382173,53.759216 440.02177,52.6917623 C439.724046,51.6243084 439.217393,50.675201 438.501813,49.8449595 C437.843688,49.0147176 436.979246,48.3326684 435.905873,47.7988118 C434.889957,47.2649549 433.607656,46.9981563 432.056361,46.9981563 C430.56252,46.9981563 429.280219,47.2649549 428.206847,47.7988118 C427.130865,48.2732355 426.237693,48.9256981 425.519501,49.7559399 C424.80392,50.5861818 424.237202,51.5648757 423.819343,52.6917623 C423.461554,53.759216 423.192558,54.856516 423.014969,55.9834023 L440.648557,55.9834023 Z M469.833296,60.3427558 C469.833296,64.4350512 470.757805,67.7266914 472.606824,70.2176764 C474.458457,72.7086615 477.203256,73.954154 480.843842,73.954154 C482.037348,73.954154 483.142058,73.9243078 484.155362,73.8651345 C485.171279,73.7465285 486.006995,73.6279226 486.662508,73.5093166 L486.662508,49.4001221 C485.826792,48.8662655 484.722082,48.4214281 483.350986,48.0656103 C482.037348,47.7097922 480.694979,47.532013 479.321273,47.532013 C472.995955,47.532013 469.833296,51.8020876 469.833296,60.3427558 Z M500,82.5835819 C498.806492,82.9393999 497.435398,83.2952178 495.884101,83.6510356 C494.330195,83.9476803 492.690102,84.2144789 490.958605,84.451691 C489.287175,84.6889029 487.55829,84.8669415 485.766727,84.9855476 C484.035229,85.1633267 482.366409,85.2523462 480.755047,85.2523462 C476.874195,85.2523462 473.413812,84.6889029 470.368674,83.5620163 C467.32615,82.4351297 464.758937,80.8338194 462.66965,78.758085 C460.582973,76.6229181 458.971611,74.0727599 457.835561,71.1070916 C456.762189,68.0825095 456.224197,64.7018497 456.224197,60.9653724 C456.224197,57.1697217 456.702121,53.759216 457.65797,50.7346339 C458.611207,47.6506192 459.984915,45.0410282 461.776478,42.905861 C463.565431,40.770694 465.743514,39.139797 468.310727,38.0129104 C470.935394,36.8860241 473.920465,36.3225808 477.263324,36.3225808 C479.112345,36.3225808 480.755047,36.5003598 482.186209,36.8561778 C483.677438,37.2122552 485.171279,37.7162659 486.662508,38.3687285 L486.662508,17.1953561 L500,15.060241 L500,82.5835819 Z" id="Shape" fill="#377DFF"></path>
            <polygon id="Path" fill="#FFFDFD" points="39.1566265 86.3453815 39.1566265 45.1807229 66.9091922 45.1807229 66.9091922 52.9621963 48.4074817 52.9621963 48.4074817 61.0407381 64.8335866 61.0407381 64.8335866 68.6439496 48.4074817 68.6439496 48.4074817 78.5638564 68.2730924 78.5638564 68.2730924 86.3453815"></polygon>
        </g>
    </g>
</svg>