<?xml version="1.0" encoding="UTF-8"?>
<svg width="205.09431px" height="46.1px" viewBox="0 0 205.09431 46.1" version="1.1" xmlns="http://www.w3.org/2000/svg" xmlns:xlink="http://www.w3.org/1999/xlink">
    <title>Group 2</title>
    <g id="Page-1" stroke="none" stroke-width="1" fill="none" fill-rule="evenodd">
        <g id="Group-2">
            <path d="M23,41.1 C13.1,41.1 5,33.1 5,23.1 C5,13.2 13,5.09998 23,5.09998 L34.3,5.09998 C38,5.09998 40.9,8.09998 40.9,11.7 L40.9,23.1 C41,33 32.9,41.1 23,41.1 Z" id="Path" fill="#FFFFFF" fill-rule="nonzero" opacity="0.65"></path>
            <path d="M28,36 C18.1,36 10,28 10,18 C10,8.1 18,0 28,0 L39.3,0 C43,0.1 46,3.1 46,6.7 L46,18.1 C46,28 38,36 28,36 Z" id="Path" fill="#FFFFFF" fill-rule="nonzero" opacity="0.5"></path>
            <path d="M18,46.1 C8,46.1 0,38.1 0,28.1 C0,18.2 8,10.1 18,10.1 L29.3,10.1 C33,10.1 35.9,13.1 35.9,16.7 L35.9,28.1 C35.9,38.1 27.9,46.1 18,46.1 Z" id="Path" fill="#FFFFFF" fill-rule="nonzero" opacity="0.7"></path>
            <path d="M54,34.4860742 L54,9.04683349 L71.1797498,9.04683349 L71.1797498,13.855686 L59.7265833,13.855686 L59.7265833,18.8481232 L69.8948818,18.8481232 L69.8948818,23.5468121 L59.7265833,23.5468121 L59.7265833,29.6771896 L72.0240488,29.6771896 L72.0240488,34.4860742 L54,34.4860742 Z M73.6922996,15.8379253 C74.6222708,15.5688077 75.8213595,15.3239995 77.2897801,15.1038221 C78.7580936,14.859121 80.299871,14.7367169 81.9151122,14.7367169 C83.55477,14.7367169 84.9129948,14.9570014 85.9897866,15.3974634 C87.0909949,15.8135087 87.9598175,16.4131067 88.5960403,17.1961501 C89.2323702,17.9793006 89.6851475,18.9092717 89.9542651,19.9860635 C90.2234898,21.0628553 90.3581022,22.2620512 90.3581022,23.583544 L90.3581022,34.4860742 L84.8884711,34.4860742 L84.8884711,24.2442904 C84.8884711,22.4822286 84.6559783,21.2341996 84.1909928,20.4999893 C83.7260072,19.765779 82.8572916,19.3987809 81.584739,19.3987809 C81.1931102,19.3987809 80.7770648,19.4231975 80.3366029,19.4721377 C79.896141,19.4966614 79.5045122,19.5332862 79.1619307,19.5822264 L79.1619307,34.4860742 L73.6922996,34.4860742 L73.6922996,15.8379253 Z M92.922805,10.3683585 L98.392436,9.48733825 L98.392436,15.1771789 L104.963383,15.1771789 L104.963383,19.7291542 L98.392436,19.7291542 L98.392436,26.5202781 C98.392436,27.6704266 98.588304,28.5881895 98.9798257,29.2734596 C99.395871,29.9586226 100.215646,30.3013112 101.439366,30.3013112 C102.026648,30.3013112 102.626246,30.2523709 103.238053,30.1543834 C103.874382,30.0320864 104.449457,29.8729504 104.963383,29.6771896 L105.734218,33.9354165 C105.073471,34.2046412 104.339261,34.437134 103.531694,34.6328949 C102.724127,34.8286557 101.733007,34.9265361 100.558335,34.9265361 C99.0654978,34.9265361 97.82957,34.7307753 96.8506587,34.3392536 C95.8718544,33.9232082 95.0887039,33.3603422 94.5013143,32.6506556 C93.9140317,31.9164453 93.4979863,31.0354144 93.2532853,30.0075628 C93.0330008,28.9797112 92.922805,27.8417709 92.922805,26.5936349 L92.922805,10.3683585 Z M118.851694,20.0227954 C118.362185,19.9003914 117.787111,19.7780944 117.126364,19.6556903 C116.465618,19.5088697 115.755824,19.4354058 114.997197,19.4354058 C114.654616,19.4354058 114.23857,19.4721377 113.749061,19.5456016 C113.284183,19.5945418 112.929286,19.6556903 112.684585,19.7291542 L112.684585,34.4860742 L107.214954,34.4860742 L107.214954,16.2050304 C108.193865,15.8624489 109.344014,15.544284 110.665613,15.2506427 C112.011523,14.9324778 113.50436,14.7734489 115.144018,14.7734489 C115.437766,14.7734489 115.792556,14.7978654 116.208601,14.8468056 C116.624647,14.8713293 117.040692,14.9202695 117.456737,14.9936263 C117.872783,15.0425665 118.288828,15.1160304 118.704766,15.2139108 C119.120812,15.2873747 119.475709,15.3852551 119.76935,15.5075521 L118.851694,20.0227954 Z M119.222762,24.9785007 C119.222762,23.2653791 119.479671,21.7725419 119.993597,20.4999893 C120.532046,19.202913 121.229525,18.1261212 122.086032,17.2696139 C122.942539,16.4131067 123.92145,15.7645685 125.022766,15.3239995 C126.148498,14.8835376 127.298646,14.6632531 128.473426,14.6632531 C131.214292,14.6632531 133.380084,15.5075521 134.970801,17.1961501 C136.561519,18.8603315 137.356878,21.3198717 137.356878,24.5746636 C137.356878,24.8928286 137.344669,25.2477254 137.320253,25.6392471 C137.295729,26.0063523 137.271313,26.3367255 137.246789,26.6303668 L124.839213,26.6303668 C124.961617,27.7560988 125.487751,28.649338 126.417723,29.3100844 C127.347694,29.9708308 128.595723,30.3013112 130.162024,30.3013112 C131.165352,30.3013112 132.144263,30.215639 133.098651,30.0442947 C134.077562,29.8485339 134.872921,29.6160411 135.484727,29.3468164 L136.218937,33.7885959 C135.925296,33.9354165 135.533667,34.0822371 135.044265,34.2291649 C134.554863,34.3759855 134.004205,34.4982825 133.392399,34.5961629 C132.805009,34.718567 132.168787,34.8164474 131.483517,34.8899113 C130.798247,34.9632681 130.113084,35 129.427813,35 C127.690275,35 126.172914,34.7429836 124.875945,34.2291649 C123.603286,33.7152391 122.538809,33.0177607 121.682195,32.1367298 C120.850211,31.2311752 120.22609,30.1666988 119.810044,28.9430864 C119.418522,27.7193669 119.222762,26.397874 119.222762,24.9785007 Z M132.070799,22.8860656 C132.046383,22.4210801 131.96071,21.9683028 131.81389,21.5278409 C131.691486,21.0873789 131.483517,20.6957501 131.189875,20.3531687 C130.920651,20.0105872 130.565754,19.7291542 130.125292,19.5088697 C129.709246,19.2885851 129.183112,19.1784964 128.546783,19.1784964 C127.934976,19.1784964 127.408842,19.2885851 126.968273,19.5088697 C126.527811,19.7046305 126.160706,19.9738552 125.867065,20.3164367 C125.573424,20.6590182 125.340931,21.0628553 125.169587,21.5278409 C125.022766,21.9683028 124.91257,22.4210801 124.839213,22.8860656 L132.070799,22.8860656 Z M149.984202,24.2442904 C149.984202,22.4822286 149.75171,21.2341996 149.286724,20.4999893 C148.846262,19.765779 148.07532,19.3987809 146.974112,19.3987809 C146.631423,19.3987809 146.276633,19.4231975 145.909528,19.4721377 C145.542423,19.4966614 145.187526,19.5332862 144.844944,19.5822264 L144.844944,34.4860742 L139.375313,34.4860742 L139.375313,15.8379253 C139.840299,15.7156283 140.378748,15.5932242 140.990555,15.4709272 C141.626777,15.3239995 142.287631,15.2017025 142.972794,15.1038221 C143.682481,14.981418 144.404483,14.8957459 145.138586,14.8468056 C145.872796,14.7734489 146.594798,14.7367169 147.304485,14.7367169 C148.699441,14.7367169 149.825173,14.9202695 150.681681,15.2873747 C151.562712,15.6299562 152.284607,16.0460015 152.847473,16.5354036 C153.630623,15.9725376 154.523862,15.5320757 155.52719,15.2139108 C156.555042,14.8957459 157.497328,14.7367169 158.353728,14.7367169 C159.895827,14.7367169 161.156279,14.9570014 162.135083,15.3974634 C163.138518,15.8135087 163.933127,16.4131067 164.521052,17.1961501 C165.107906,17.9793006 165.511636,18.9092717 165.732242,19.9860635 C165.952848,21.0628553 166.063151,22.2620512 166.063151,23.583544 L166.063151,34.4860742 L160.592984,34.4860742 L160.592984,24.2442904 C160.592984,22.4822286 160.360598,21.2341996 159.895827,20.4999893 C159.454616,19.765779 158.684637,19.3987809 157.582893,19.3987809 C157.289252,19.3987809 156.873207,19.4721377 156.334864,19.6189584 C155.820939,19.765779 155.392685,19.9493316 155.049996,20.1696161 C155.221341,20.7324821 155.331429,21.33208 155.38037,21.9683028 C155.42931,22.5802161 155.453833,23.2409625 155.453833,23.9506492 L155.453833,34.4860742 L149.984202,34.4860742 L149.984202,24.2442904 Z M167.909385,24.9785007 C167.909385,23.2653791 168.166402,21.7725419 168.680435,20.4999893 C169.219098,19.202913 169.916255,18.1261212 170.772977,17.2696139 C171.628627,16.4131067 172.608503,15.7645685 173.70939,15.3239995 C174.834908,14.8835376 175.985056,14.6632531 177.159835,14.6632531 C179.901344,14.6632531 182.066708,15.5075521 183.656997,17.1961501 C185.248357,18.8603315 186.042966,21.3198717 186.042966,24.5746636 C186.042966,24.8928286 186.031186,25.2477254 186.006555,25.6392471 C185.981925,26.0063523 185.958365,26.3367255 185.933734,26.6303668 L173.526266,26.6303668 C173.648348,27.7560988 174.174161,28.649338 175.104775,29.3100844 C176.034318,29.9708308 177.281918,30.3013112 178.848648,30.3013112 C179.852083,30.3013112 180.830887,30.215639 181.78506,30.0442947 C182.763865,29.8485339 183.559545,29.6160411 184.17103,29.3468164 L184.905668,33.7885959 C184.612241,33.9354165 184.220291,34.0822371 183.730889,34.2291649 C183.241487,34.3759855 182.691043,34.4982825 182.078488,34.5961629 C181.491633,34.718567 180.855518,34.8164474 180.17014,34.8899113 C179.484763,34.9632681 178.799386,35 178.114009,35 C176.377006,35 174.859538,34.7429836 173.562676,34.2291649 C172.289374,33.7152391 171.224898,33.0177607 170.369247,32.1367298 C169.537156,31.2311752 168.91282,30.1666988 168.49624,28.9430864 C168.10536,27.7193669 167.909385,26.397874 167.909385,24.9785007 Z M180.756995,22.8860656 C180.733435,22.4210801 180.647763,21.9683028 180.499978,21.5278409 C180.377895,21.0873789 180.17014,20.6957501 179.876713,20.3531687 C179.606846,20.0105872 179.252378,19.7291542 178.812237,19.5088697 C178.395656,19.2885851 177.869843,19.1784964 177.233728,19.1784964 C176.621172,19.1784964 176.095359,19.2885851 175.655218,19.5088697 C175.214007,19.7046305 174.847758,19.9738552 174.55326,20.3164367 C174.259833,20.6590182 174.027448,21.0628553 173.856103,21.5278409 C173.70939,21.9683028 173.599087,22.4210801 173.526266,22.8860656 L180.756995,22.8860656 Z M192.724323,24.6848594 C192.724323,26.3734574 193.103422,27.7316822 193.86162,28.7595338 C194.62089,29.7873854 195.746407,30.3013112 197.239245,30.3013112 C197.728647,30.3013112 198.181638,30.2889958 198.597148,30.2645792 C199.013729,30.215639 199.356418,30.1666988 199.625214,30.1177586 L199.625214,20.1696161 C199.282525,19.9493316 198.829534,19.765779 198.26731,19.6189584 C197.728647,19.4721377 197.178203,19.3987809 196.614909,19.3987809 C194.021185,19.3987809 192.724323,21.1607357 192.724323,24.6848594 Z M205.09431,33.8620597 C204.604907,34.0088804 204.042684,34.155701 203.406568,34.3025216 C202.769382,34.4249257 202.096855,34.5350144 201.386847,34.6328949 C200.70147,34.7307753 199.992533,34.8042391 199.257895,34.8531794 C198.547887,34.9265361 197.86358,34.9632681 197.202834,34.9632681 C195.611474,34.9632681 194.192529,34.7307753 192.943857,34.2657897 C191.696257,33.8008041 190.64356,33.1400577 189.786839,32.2835504 C188.931188,31.4025195 188.270442,30.3502514 187.8046,29.1265319 C187.364459,27.8785029 187.143853,26.4835461 187.143853,24.9417688 C187.143853,23.3755749 187.339828,21.9683028 187.731778,20.7202738 C188.122657,19.4477212 188.685952,18.3709294 189.42059,17.4898984 C190.154158,16.6088675 191.04729,15.9359128 192.099987,15.4709272 C193.176243,15.0059417 194.400284,14.7734489 195.771038,14.7734489 C196.529237,14.7734489 197.202834,14.8468056 197.789688,14.9936263 C198.401173,15.140554 199.013729,15.3485232 199.625214,15.6177479 L199.625214,6.88100951 L205.09431,6 L205.09431,33.8620597 Z" id="Shape" fill="#FFFFFF" fill-rule="nonzero"></path>
            <polygon id="Path" fill="#377DFF" points="16.1702726 35.4545069 16.1702726 18.5176415 27.6081576 18.5176415 27.6081576 21.7192657 19.9829009 21.7192657 19.9829009 25.0431163 26.7527218 25.0431163 26.7527218 28.1713961 19.9829009 28.1713961 19.9829009 32.2528614 28.1702726 32.2528614 28.1702726 35.4545069"></polygon>
        </g>
    </g>
</svg>