<?xml version="1.0" encoding="UTF-8"?>
<svg width="500px" height="300px" viewBox="0 0 500 300" version="1.1" xmlns="http://www.w3.org/2000/svg" xmlns:xlink="http://www.w3.org/1999/xlink">
    <title>card-12</title>
    <g id="Page-1" stroke="none" stroke-width="1" fill="none" fill-rule="evenodd">
        <g id="card-12">
            <polygon id="Path" fill="#326CB2" fill-rule="nonzero" points="500 0 0 0 0 300 500 300"></polygon>
            <path d="M437,118 C465.719,118 489,94.7188 489,66 C489,37.2812 465.719,14 437,14 C408.281,14 385,37.2812 385,66 C385,94.7188 408.281,118 437,118 Z" id="Path" fill="#00EAFC" fill-rule="nonzero" opacity="0.8"></path>
            <path d="M396.5,55 C405.06,55 412,48.0604 412,39.5 C412,30.9396 405.06,24 396.5,24 C387.94,24 381,30.9396 381,39.5 C381,48.0604 387.94,55 396.5,55 Z" id="Path" stroke="#377DFF" stroke-width="10" opacity="0.7"></path>
            <path d="M372,14 C373.657,14 375,12.6569 375,11 C375,9.34315 373.657,8 372,8 C370.343,8 369,9.34315 369,11 C369,12.6569 370.343,14 372,14 Z" id="Path" fill="#26BCB8" fill-rule="nonzero"></path>
            <path d="M397.9,26.4 C396.6,21.9 399.2,17.2 403.6,15.9 C408.1,14.6 412.8,17.2 414.1,21.6 C415.4,26.1 412.8,30.8 408.3,32.1 C403.9,33.5 399.2,30.9 397.9,26.4 Z" id="Path" fill="#F4E800" fill-rule="nonzero" opacity="0.7"></path>
            <g id="Group" opacity="0.4" transform="translate(357.400000, 187.300000)" fill="#00EAFC" fill-rule="nonzero">
                <path d="M1.4,2.8 C2.173,2.8 2.8,2.173 2.8,1.4 C2.8,0.627 2.173,0 1.4,0 C0.627,0 0,0.627 0,1.4 C0,2.173 0.627,2.8 1.4,2.8 Z" id="Path"></path>
                <path d="M31.9,2.8 C32.673,2.8 33.3,2.173 33.3,1.4 C33.3,0.627 32.673,0 31.9,0 C31.127,0 30.5,0.627 30.5,1.4 C30.5,2.173 31.127,2.8 31.9,2.8 Z" id="Path"></path>
                <path d="M62.5,2.8 C63.273,2.8 63.9,2.173 63.9,1.4 C63.9,0.627 63.273,0 62.5,0 C61.727,0 61.1,0.627 61.1,1.4 C61.1,2.173 61.727,2.8 62.5,2.8 Z" id="Path"></path>
                <path d="M93.1,2.8 C93.873,2.8 94.5,2.173 94.5,1.4 C94.5,0.627 93.873,0 93.1,0 C92.327,0 91.7,0.627 91.7,1.4 C91.7,2.173 92.327,2.8 93.1,2.8 Z" id="Path"></path>
                <path d="M123.7,2.8 C124.473,2.8 125.1,2.173 125.1,1.4 C125.1,0.627 124.473,0 123.7,0 C122.927,0 122.3,0.627 122.3,1.4 C122.3,2.173 122.927,2.8 123.7,2.8 Z" id="Path"></path>
                <path d="M123.7,33.4 C124.473,33.4 125.1,32.773 125.1,32 C125.1,31.227 124.473,30.6 123.7,30.6 C122.927,30.6 122.3,31.227 122.3,32 C122.3,32.773 122.927,33.4 123.7,33.4 Z" id="Path"></path>
                <path d="M1.4,33.4 C2.173,33.4 2.8,32.773 2.8,32 C2.8,31.227 2.173,30.6 1.4,30.6 C0.627,30.6 0,31.227 0,32 C0,32.773 0.627,33.4 1.4,33.4 Z" id="Path"></path>
                <path d="M31.9,33.4 C32.673,33.4 33.3,32.773 33.3,32 C33.3,31.227 32.673,30.6 31.9,30.6 C31.127,30.6 30.5,31.227 30.5,32 C30.5,32.773 31.127,33.4 31.9,33.4 Z" id="Path"></path>
                <path d="M62.5,33.4 C63.273,33.4 63.9,32.773 63.9,32 C63.9,31.227 63.273,30.6 62.5,30.6 C61.727,30.6 61.1,31.227 61.1,32 C61.1,32.773 61.727,33.4 62.5,33.4 Z" id="Path"></path>
                <path d="M93.1,33.4 C93.873,33.4 94.5,32.773 94.5,32 C94.5,31.227 93.873,30.6 93.1,30.6 C92.327,30.6 91.7,31.227 91.7,32 C91.7,32.773 92.327,33.4 93.1,33.4 Z" id="Path"></path>
                <path d="M1.4,63.9 C2.173,63.9 2.8,63.273 2.8,62.5 C2.8,61.727 2.173,61.1 1.4,61.1 C0.627,61.1 0,61.727 0,62.5 C0,63.273 0.627,63.9 1.4,63.9 Z" id="Path"></path>
                <path d="M31.9,63.9 C32.673,63.9 33.3,63.273 33.3,62.5 C33.3,61.727 32.673,61.1 31.9,61.1 C31.127,61.1 30.5,61.727 30.5,62.5 C30.5,63.273 31.127,63.9 31.9,63.9 Z" id="Path"></path>
                <path d="M62.5,63.9 C63.273,63.9 63.9,63.273 63.9,62.5 C63.9,61.727 63.273,61.1 62.5,61.1 C61.727,61.1 61.1,61.727 61.1,62.5 C61.1,63.273 61.727,63.9 62.5,63.9 Z" id="Path"></path>
                <path d="M93.1,63.9 C93.873,63.9 94.5,63.273 94.5,62.5 C94.5,61.727 93.873,61.1 93.1,61.1 C92.327,61.1 91.7,61.727 91.7,62.5 C91.7,63.273 92.327,63.9 93.1,63.9 Z" id="Path"></path>
                <path d="M123.7,63.9 C124.473,63.9 125.1,63.273 125.1,62.5 C125.1,61.727 124.473,61.1 123.7,61.1 C122.927,61.1 122.3,61.727 122.3,62.5 C122.3,63.273 122.927,63.9 123.7,63.9 Z" id="Path"></path>
                <path d="M1.4,94.5 C2.173,94.5 2.8,93.873 2.8,93.1 C2.8,92.327 2.173,91.7 1.4,91.7 C0.627,91.7 0,92.327 0,93.1 C0,93.873 0.627,94.5 1.4,94.5 Z" id="Path"></path>
                <path d="M31.9,94.5 C32.673,94.5 33.3,93.873 33.3,93.1 C33.3,92.327 32.673,91.7 31.9,91.7 C31.127,91.7 30.5,92.327 30.5,93.1 C30.5,93.873 31.127,94.5 31.9,94.5 Z" id="Path"></path>
                <path d="M62.5,94.5 C63.273,94.5 63.9,93.873 63.9,93.1 C63.9,92.327 63.273,91.7 62.5,91.7 C61.727,91.7 61.1,92.327 61.1,93.1 C61.1,93.873 61.727,94.5 62.5,94.5 Z" id="Path"></path>
                <path d="M93.1,94.5 C93.873,94.5 94.5,93.873 94.5,93.1 C94.5,92.327 93.873,91.7 93.1,91.7 C92.327,91.7 91.7,92.327 91.7,93.1 C91.7,93.873 92.327,94.5 93.1,94.5 Z" id="Path"></path>
                <path d="M123.7,94.5 C124.473,94.5 125.1,93.873 125.1,93.1 C125.1,92.327 124.473,91.7 123.7,91.7 C122.927,91.7 122.3,92.327 122.3,93.1 C122.3,93.873 122.927,94.5 123.7,94.5 Z" id="Path"></path>
            </g>
            <polygon id="Path" fill="#18EAEA" fill-rule="nonzero" opacity="0.3" points="52.3325063 93 256.33125 93 153.138062 284"></polygon>
            <polygon id="Path" fill="#18EAEA" fill-rule="nonzero" opacity="0.3" points="31.7734175 113.691667 276.890278 113.691667 152.872784 284"></polygon>
            <polygon id="Path" fill="#18EAEA" fill-rule="nonzero" opacity="0.3" points="14 135.444444 294.663889 135.444444 152.740278 284"></polygon>
        </g>
    </g>
</svg>